<mxfile host="app.diagrams.net" agent="Mozilla/5.0 (Macintosh; Intel Mac OS X 10_15_7) AppleWebKit/605.1.15 (KHTML, like Gecko) Version/17.5 Safari/605.1.15" version="24.7.12">
  <diagram id="C5RBs43oDa-KdzZeNtuy" name="Page-1">
    <mxGraphModel dx="727" dy="606" grid="1" gridSize="10" guides="1" tooltips="1" connect="1" arrows="1" fold="1" page="1" pageScale="1" pageWidth="827" pageHeight="1169" math="0" shadow="0">
      <root>
        <mxCell id="WIyWlLk6GJQsqaUBKTNV-0" />
        <mxCell id="WIyWlLk6GJQsqaUBKTNV-1" parent="WIyWlLk6GJQsqaUBKTNV-0" />
        <mxCell id="BEpcDOSV5dcdy4L4CPcj-5" value="" style="edgeStyle=none;curved=1;rounded=0;orthogonalLoop=1;jettySize=auto;html=1;fontSize=12;startSize=8;endSize=8;" edge="1" parent="WIyWlLk6GJQsqaUBKTNV-1" source="BEpcDOSV5dcdy4L4CPcj-0" target="BEpcDOSV5dcdy4L4CPcj-4">
          <mxGeometry relative="1" as="geometry" />
        </mxCell>
        <mxCell id="BEpcDOSV5dcdy4L4CPcj-0" value="シーン開始" style="strokeWidth=2;html=1;shape=mxgraph.flowchart.terminator;whiteSpace=wrap;" vertex="1" parent="WIyWlLk6GJQsqaUBKTNV-1">
          <mxGeometry x="160" y="60" width="120" height="60" as="geometry" />
        </mxCell>
        <mxCell id="BEpcDOSV5dcdy4L4CPcj-7" value="" style="edgeStyle=none;curved=1;rounded=0;orthogonalLoop=1;jettySize=auto;html=1;fontSize=12;startSize=8;endSize=8;" edge="1" parent="WIyWlLk6GJQsqaUBKTNV-1" source="BEpcDOSV5dcdy4L4CPcj-4" target="BEpcDOSV5dcdy4L4CPcj-6">
          <mxGeometry relative="1" as="geometry" />
        </mxCell>
        <mxCell id="BEpcDOSV5dcdy4L4CPcj-4" value="きりやん&lt;div&gt;背景：エンド&lt;/div&gt;" style="rounded=1;whiteSpace=wrap;html=1;absoluteArcSize=1;arcSize=14;strokeWidth=2;" vertex="1" parent="WIyWlLk6GJQsqaUBKTNV-1">
          <mxGeometry x="160" y="170" width="120" height="60" as="geometry" />
        </mxCell>
        <mxCell id="BEpcDOSV5dcdy4L4CPcj-9" value="" style="edgeStyle=none;curved=1;rounded=0;orthogonalLoop=1;jettySize=auto;html=1;fontSize=12;startSize=8;endSize=8;" edge="1" parent="WIyWlLk6GJQsqaUBKTNV-1" source="BEpcDOSV5dcdy4L4CPcj-6" target="BEpcDOSV5dcdy4L4CPcj-8">
          <mxGeometry relative="1" as="geometry" />
        </mxCell>
        <mxCell id="BEpcDOSV5dcdy4L4CPcj-6" value="スマイル&lt;div&gt;背景：エンドシップ&lt;/div&gt;" style="rounded=1;whiteSpace=wrap;html=1;absoluteArcSize=1;arcSize=14;strokeWidth=2;" vertex="1" parent="WIyWlLk6GJQsqaUBKTNV-1">
          <mxGeometry x="160" y="280" width="120" height="60" as="geometry" />
        </mxCell>
        <mxCell id="BEpcDOSV5dcdy4L4CPcj-11" value="" style="edgeStyle=none;curved=1;rounded=0;orthogonalLoop=1;jettySize=auto;html=1;fontSize=12;startSize=8;endSize=8;" edge="1" parent="WIyWlLk6GJQsqaUBKTNV-1" source="BEpcDOSV5dcdy4L4CPcj-8" target="BEpcDOSV5dcdy4L4CPcj-10">
          <mxGeometry relative="1" as="geometry" />
        </mxCell>
        <mxCell id="BEpcDOSV5dcdy4L4CPcj-8" value="きんとき&lt;div&gt;背景：桜が咲いている平原&lt;/div&gt;" style="rounded=1;whiteSpace=wrap;html=1;absoluteArcSize=1;arcSize=14;strokeWidth=2;" vertex="1" parent="WIyWlLk6GJQsqaUBKTNV-1">
          <mxGeometry x="160" y="390" width="120" height="60" as="geometry" />
        </mxCell>
        <mxCell id="BEpcDOSV5dcdy4L4CPcj-13" value="" style="edgeStyle=none;curved=1;rounded=0;orthogonalLoop=1;jettySize=auto;html=1;fontSize=12;startSize=8;endSize=8;" edge="1" parent="WIyWlLk6GJQsqaUBKTNV-1" source="BEpcDOSV5dcdy4L4CPcj-10" target="BEpcDOSV5dcdy4L4CPcj-12">
          <mxGeometry relative="1" as="geometry" />
        </mxCell>
        <mxCell id="BEpcDOSV5dcdy4L4CPcj-10" value="シャークん&lt;div&gt;背景：砂漠村&lt;/div&gt;" style="rounded=1;whiteSpace=wrap;html=1;absoluteArcSize=1;arcSize=14;strokeWidth=2;" vertex="1" parent="WIyWlLk6GJQsqaUBKTNV-1">
          <mxGeometry x="160" y="500" width="120" height="60" as="geometry" />
        </mxCell>
        <mxCell id="BEpcDOSV5dcdy4L4CPcj-15" value="" style="edgeStyle=none;curved=1;rounded=0;orthogonalLoop=1;jettySize=auto;html=1;fontSize=12;startSize=8;endSize=8;" edge="1" parent="WIyWlLk6GJQsqaUBKTNV-1" source="BEpcDOSV5dcdy4L4CPcj-12" target="BEpcDOSV5dcdy4L4CPcj-14">
          <mxGeometry relative="1" as="geometry" />
        </mxCell>
        <mxCell id="BEpcDOSV5dcdy4L4CPcj-12" value="brooook&lt;div&gt;背景：歪んだ森の&lt;/div&gt;&lt;div&gt;ピグリン砦&lt;/div&gt;" style="rounded=1;whiteSpace=wrap;html=1;absoluteArcSize=1;arcSize=14;strokeWidth=2;" vertex="1" parent="WIyWlLk6GJQsqaUBKTNV-1">
          <mxGeometry x="160" y="610" width="120" height="60" as="geometry" />
        </mxCell>
        <mxCell id="BEpcDOSV5dcdy4L4CPcj-17" value="" style="edgeStyle=none;curved=1;rounded=0;orthogonalLoop=1;jettySize=auto;html=1;fontSize=12;startSize=8;endSize=8;" edge="1" parent="WIyWlLk6GJQsqaUBKTNV-1" source="BEpcDOSV5dcdy4L4CPcj-14" target="BEpcDOSV5dcdy4L4CPcj-16">
          <mxGeometry relative="1" as="geometry" />
        </mxCell>
        <mxCell id="BEpcDOSV5dcdy4L4CPcj-14" value="Nakamu&lt;div&gt;背景：ネザー要塞&lt;/div&gt;" style="rounded=1;whiteSpace=wrap;html=1;absoluteArcSize=1;arcSize=14;strokeWidth=2;" vertex="1" parent="WIyWlLk6GJQsqaUBKTNV-1">
          <mxGeometry x="160" y="720" width="120" height="60" as="geometry" />
        </mxCell>
        <mxCell id="BEpcDOSV5dcdy4L4CPcj-19" value="" style="edgeStyle=none;curved=1;rounded=0;orthogonalLoop=1;jettySize=auto;html=1;fontSize=12;startSize=8;endSize=8;" edge="1" parent="WIyWlLk6GJQsqaUBKTNV-1" source="BEpcDOSV5dcdy4L4CPcj-16" target="BEpcDOSV5dcdy4L4CPcj-18">
          <mxGeometry relative="1" as="geometry" />
        </mxCell>
        <mxCell id="BEpcDOSV5dcdy4L4CPcj-16" value="スマホ画面&lt;div&gt;（指令を表示）&lt;/div&gt;" style="rounded=1;whiteSpace=wrap;html=1;absoluteArcSize=1;arcSize=14;strokeWidth=2;" vertex="1" parent="WIyWlLk6GJQsqaUBKTNV-1">
          <mxGeometry x="160" y="830" width="120" height="60" as="geometry" />
        </mxCell>
        <mxCell id="BEpcDOSV5dcdy4L4CPcj-18" value="Nakamu&lt;div&gt;背景：ネザー要塞&lt;/div&gt;" style="rounded=1;whiteSpace=wrap;html=1;absoluteArcSize=1;arcSize=14;strokeWidth=2;" vertex="1" parent="WIyWlLk6GJQsqaUBKTNV-1">
          <mxGeometry x="160" y="940" width="120" height="60" as="geometry" />
        </mxCell>
      </root>
    </mxGraphModel>
  </diagram>
</mxfile>
